<?xml version="1.0" encoding="UTF-8"?>
<svg width="116px" height="116px" viewBox="0 0 116 116" version="1.1" xmlns="http://www.w3.org/2000/svg" xmlns:xlink="http://www.w3.org/1999/xlink">
    <!-- Generator: Sketch 52.6 (67491) - http://www.bohemiancoding.com/sketch -->
    <title>01 10</title>
    <desc>Created with Sketch.</desc>
    <g id="Page-1" stroke="none" stroke-width="1" fill="none" fill-rule="evenodd">
        <path d="M15.4285714,54 L15.4285714,46.2857143 L7.71428571,46.2857143 L7.71428571,38.5714286 L0,38.5714286 L0,15.4285714 L7.71428571,15.4285714 L7.71428571,7.71428571 L15.4285714,7.71428571 L15.4285714,0 L38.5714286,0 L38.5714286,7.71428571 L46.2857143,7.71428571 L46.2857143,15.4285714 L54,15.4285714 L54,38.5714286 L46.2857143,38.5714286 L46.2857143,46.2857143 L38.5714286,46.2857143 L38.5714286,54 L15.4285714,54 Z M23.6666667,47 L39,47 L39,15.8 L31.3333333,15.8 L31.3333333,8 L16,8 L16,39.2 L23.6666667,39.2 L23.6666667,47 Z M70,54 L70,46.2857143 L85.3333333,46.2857143 L85.3333333,15.4285714 L77.6666667,15.4285714 L77.6666667,7.71428571 L85.3333333,7.71428571 L85.3333333,0 L100.666667,0 L100.666667,46.2857143 L116,46.2857143 L116,54 L70,54 Z M8,116 L8,108.285714 L23.3333333,108.285714 L23.3333333,77.4285714 L15.6666667,77.4285714 L15.6666667,69.7142857 L23.3333333,69.7142857 L23.3333333,62 L38.6666667,62 L38.6666667,108.285714 L54,108.285714 L54,116 L8,116 Z M77.4285714,116 L77.4285714,108.285714 L69.7142857,108.285714 L69.7142857,100.571429 L62,100.571429 L62,77.4285714 L69.7142857,77.4285714 L69.7142857,69.7142857 L77.4285714,69.7142857 L77.4285714,62 L100.571429,62 L100.571429,69.7142857 L108.285714,69.7142857 L108.285714,77.4285714 L116,77.4285714 L116,100.571429 L108.285714,100.571429 L108.285714,108.285714 L100.571429,108.285714 L100.571429,116 L77.4285714,116 Z M84.6666667,108 L100,108 L100,76.8 L92.3333333,76.8 L92.3333333,69 L77,69 L77,100.2 L84.6666667,100.2 L84.6666667,108 Z" id="01-10" fill="#111111"></path>
    </g>
</svg>