<?xml version="1.0" encoding="UTF-8"?>
<svg width="630px" height="704px" viewBox="0 0 630 704" version="1.1" xmlns="http://www.w3.org/2000/svg" xmlns:xlink="http://www.w3.org/1999/xlink">
    <!-- Generator: Sketch 52.6 (67491) - http://www.bohemiancoding.com/sketch -->
    <title>Group 4</title>
    <desc>Created with Sketch.</desc>
    <defs>
        <polygon id="path-1" points="0 146.760037 324.229932 0 627.793451 186.156048 564.464196 513.173439 276.36212 701.516352 25.1232478 468.002029"></polygon>
    </defs>
    <g id="Page-1" stroke="none" stroke-width="1" fill="none" fill-rule="evenodd">
        <g id="Group-4" transform="translate(-11.000000, -21.000000)">
            <g id="Path-6-+-Path-5-Mask-2-Copy-2">
                <g id="Path-6-+-Path-5-Mask" transform="translate(338.522995, 372.178722) rotate(-4.000000) translate(-338.522995, -372.178722) translate(24.522995, 21.178722)">
                    <mask id="mask-2" fill="white">
                        <use xlink:href="#path-1"></use>
                    </mask>
                    <use id="Mask" fill="#75E9FE" opacity="0.900000036" xlink:href="#path-1"></use>
                    <polygon id="Path-6" fill="#71DCF7" mask="url(#mask-2)" points="299.758904 384.868723 -80.9695793 81.2652849 -41.9274971 478.929863 310.290334 734.033798 358.426707 516.450492"></polygon>
                    <polygon id="Path-5" fill="#B7FBFF" mask="url(#mask-2)" points="300.132181 385.283109 273.413278 749.237343 719.630952 562.003842 722.508912 128.744177"></polygon>
                </g>
            </g>
            <path d="M180,444 L224.90566,444 C232.176137,444 239.23267,442.826678 246.075472,440.48 C252.918273,438.133322 259.012552,434.240027 264.358491,428.8 C269.704429,423.359973 273.981116,416.26671 277.188679,407.52 C280.396242,398.77329 282,388.10673 282,375.52 C282,363.999942 280.87737,353.600046 278.632075,344.32 C276.386781,335.039954 272.698139,327.093366 267.566038,320.48 C262.433937,313.866634 255.644696,308.800018 247.198113,305.28 C238.75153,301.759982 228.327106,300 215.924528,300 L180,300 L180,444 Z M130,258 L227.955696,258 C242.585516,258 256.208007,260.341713 268.823576,265.02521 C281.439145,269.708707 292.35834,276.733847 301.581487,286.10084 C310.804635,295.467834 318.013423,307.1764 323.20807,321.226891 C328.402716,335.277381 331,351.775816 331,370.722689 C331,387.327814 328.879768,402.655392 324.639241,416.705882 C320.398713,430.756373 313.985011,442.890705 305.397943,453.109244 C296.810875,463.327782 286.103703,471.364116 273.276108,477.218487 C260.448512,483.072858 245.341859,486 227.955696,486 L130,486 L130,258 Z M416,366 L454.946154,366 C460.692336,366 466.225614,365.576328 471.546154,364.728972 C476.866693,363.881616 481.548698,362.239888 485.592308,359.803738 C489.635918,357.367589 492.881398,353.925256 495.328846,349.476636 C497.776294,345.028015 499,339.202528 499,332 C499,324.797472 497.776294,318.971985 495.328846,314.523364 C492.881398,310.074744 489.635918,306.632411 485.592308,304.196262 C481.548698,301.760112 476.866693,300.118384 471.546154,299.271028 C466.225614,298.423672 460.692336,298 454.946154,298 L416,298 L416,366 Z M366,258 L468.428822,258 C482.637447,258 494.725199,260.075609 504.692443,264.226891 C514.659687,268.378172 522.771205,273.85991 529.027241,280.672269 C535.283277,287.484628 539.842692,295.254858 542.705624,303.983193 C545.568556,312.711528 547,321.759057 547,331.12605 C547,340.280158 545.568556,349.274466 542.705624,358.109244 C539.842692,366.944022 535.283277,374.767473 529.027241,381.579832 C522.771205,388.392191 514.659687,393.873929 504.692443,398.02521 C494.725199,402.176491 482.637447,404.252101 468.428822,404.252101 L415.942004,404.252101 L415.942004,486 L366,486 L366,258 Z" id="DP" fill="#0E3563"></path>
        </g>
    </g>
</svg>