<?xml version="1.0" encoding="UTF-8"?>
<svg width="1382px" height="32px" viewBox="0 0 1382 32" version="1.1" xmlns="http://www.w3.org/2000/svg" xmlns:xlink="http://www.w3.org/1999/xlink">
    <!-- Generator: Sketch 52.6 (67491) - http://www.bohemiancoding.com/sketch -->
    <title>Group</title>
    <desc>Created with Sketch.</desc>
    <g id="Page-1" stroke="none" stroke-width="1" fill="none" fill-rule="evenodd">
        <g id="Group" transform="translate(0.000000, 2.000000)" stroke="#FEEF32" stroke-width="6">
            <path d="M-7.10542736e-15,26.9813742 C21.4172329,26.9813742 21.6093637,0.984923349 43.2187274,0.984923349 C64.8280911,0.984923349 63.686645,26.9813742 86.4374548,26.9813742" id="Path-2"></path>
            <path d="M86.4374548,26.9813742 C107.854688,26.9813742 108.046819,0.984923349 129.656182,0.984923349 C151.265546,0.984923349 150.1241,26.9813742 172.87491,26.9813742" id="Path-2-Copy"></path>
            <path d="M172.375271,26.9813742 C193.792504,26.9813742 193.984635,0.984923349 215.593999,0.984923349 C237.203362,0.984923349 236.061916,26.9813742 258.812726,26.9813742" id="Path-2"></path>
            <path d="M258.812726,26.9813742 C280.229959,26.9813742 280.42209,0.984923349 302.031453,0.984923349 C323.640817,0.984923349 322.499371,26.9813742 345.250181,26.9813742" id="Path-2-Copy"></path>
            <path d="M345.749819,26.9813742 C367.167052,26.9813742 367.359183,0.984923349 388.968547,0.984923349 C410.57791,0.984923349 409.436464,26.9813742 432.187274,26.9813742" id="Path-2"></path>
            <path d="M432.187274,26.9813742 C453.604507,26.9813742 453.796638,0.984923349 475.406001,0.984923349 C497.015365,0.984923349 495.873919,26.9813742 518.624729,26.9813742" id="Path-2-Copy"></path>
            <path d="M518.12509,26.9813742 C539.542323,26.9813742 539.734454,0.984923349 561.343818,0.984923349 C582.953181,0.984923349 581.811735,26.9813742 604.562545,26.9813742" id="Path-2"></path>
            <path d="M604.562545,26.9813742 C625.979778,26.9813742 626.171909,0.984923349 647.781273,0.984923349 C669.390636,0.984923349 668.24919,26.9813742 691,26.9813742" id="Path-2-Copy"></path>
            <path d="M691,26.9813742 C712.417233,26.9813742 712.609364,0.984923349 734.218727,0.984923349 C755.828091,0.984923349 754.686645,26.9813742 777.437455,26.9813742" id="Path-2"></path>
            <path d="M777.437455,26.9813742 C798.854688,26.9813742 799.046819,0.984923349 820.656182,0.984923349 C842.265546,0.984923349 841.1241,26.9813742 863.87491,26.9813742" id="Path-2-Copy"></path>
            <path d="M863.375271,26.9813742 C884.792504,26.9813742 884.984635,0.984923349 906.593999,0.984923349 C928.203362,0.984923349 927.061916,26.9813742 949.812726,26.9813742" id="Path-2"></path>
            <path d="M949.812726,26.9813742 C971.229959,26.9813742 971.42209,0.984923349 993.031453,0.984923349 C1014.64082,0.984923349 1013.49937,26.9813742 1036.25018,26.9813742" id="Path-2-Copy"></path>
            <path d="M1036.74982,26.9813742 C1058.16705,26.9813742 1058.35918,0.984923349 1079.96855,0.984923349 C1101.57791,0.984923349 1100.43646,26.9813742 1123.18727,26.9813742" id="Path-2"></path>
            <path d="M1123.18727,26.9813742 C1144.60451,26.9813742 1144.79664,0.984923349 1166.406,0.984923349 C1188.01537,0.984923349 1186.87392,26.9813742 1209.62473,26.9813742" id="Path-2-Copy"></path>
            <path d="M1209.12509,26.9813742 C1230.54232,26.9813742 1230.73445,0.984923349 1252.34382,0.984923349 C1273.95318,0.984923349 1272.81174,26.9813742 1295.56255,26.9813742" id="Path-2"></path>
            <path d="M1295.56255,26.9813742 C1316.97978,26.9813742 1317.17191,0.984923349 1338.78127,0.984923349 C1360.39064,0.984923349 1359.24919,26.9813742 1382,26.9813742" id="Path-2-Copy"></path>
        </g>
    </g>
</svg>